<svg width="24" height="27" viewBox="0 0 24 27" fill="none" xmlns="http://www.w3.org/2000/svg">
<path d="M23.0378 19.7931C22.4183 21.1671 22.1198 21.7806 21.3218 22.9956C20.2088 24.6905 18.6368 26.8026 16.6913 26.8206C14.9633 26.8356 14.5193 25.6955 12.1718 25.709C9.82583 25.7211 9.33683 26.8415 7.60733 26.825C5.66183 26.807 4.17233 24.9006 3.05783 23.2041C-0.0576666 18.4641 -0.383167 12.8991 1.53833 9.93955C2.90333 7.83805 5.05883 6.60805 7.08383 6.60805C9.14633 6.60805 10.4438 7.73905 12.1478 7.73905C13.8023 7.73905 14.8103 6.60505 17.1953 6.60505C18.9953 6.60505 20.9063 7.58755 22.2668 9.28255C17.8088 11.7261 18.5318 18.0921 23.0378 19.7931ZM15.3863 4.71205C16.2518 3.59905 16.9103 2.03005 16.6718 0.425049C15.2558 0.522549 13.6013 1.42255 12.6338 2.59705C11.7578 3.66205 11.0333 5.24155 11.3138 6.77755C12.8588 6.82405 14.4578 5.90155 15.3863 4.71205Z" fill="url(#paint0_linear_1_180)"/>
<defs>
<linearGradient id="paint0_linear_1_180" x1="0.345428" y1="0.425049" x2="23.0377" y2="30.1494" gradientUnits="userSpaceOnUse">
<stop stop-color="#E5E5E5"/>
<stop offset="1" stop-color="white"/>
</linearGradient>
</defs>
</svg>
